#!OML:ASF F:\VICON\USERDATA\INSTALL\Justin_Nancy\Justin_Nancy.ASF
:FULLY-SPECIFIED
:DEGREES
379
root 11.209 17.2843 21.1956 6.88398 39.4289 7.83027
lowerback 5.6558 -1.87358 -7.02813
upperback 0.34472 -2.89605 1.56165
thorax -2.38622 -1.36313 5.78915
lowerneck -15.2692 -2.86252 -9.83951
upperneck 23.8782 -2.35109 4.04028
head 10.342 -1.45706 2.78654
rclavicle 6.75868e-015 -3.97569e-015
rhumerus -35.843 -16.8601 -76.9027
rradius 25.8507
rwrist 9.99468
rhand -15.1738 12.6783
rfingers 7.12502
rthumb 10.9971 -17.0136
lclavicle 6.75868e-015 -3.97569e-015
lhumerus -24.2804 2.57835 84.8859
lradius 34.725
lwrist -5.72419
lhand -15.6032 25.5354
lfingers 7.12502
lthumb 10.5829 55.249
rfemur -27.5822 4.29813 12.2227
rtibia 11.8106
rfoot -5.11388 -10.5206
rtoes 2.3217
lfemur 6.49306 0.0973526 -29.3964
ltibia 16.9713
lfoot -16.3202 1.49215
ltoes -5.53787
380
root 11.2921 17.2782 21.3129 6.98271 39.4557 7.92615
lowerback 5.87942 -1.89014 -6.88549
upperback 0.248549 -2.92927 1.50686
thorax -2.61686 -1.3691 5.66663
lowerneck -15.3167 -3.00189 -10.0764
upperneck 24.17 -2.49957 4.12122
head 10.4756 -1.54166 2.83974
rclavicle -3.18055e-015 -8.74653e-015
rhumerus -36.2073 -16.9099 -76.8251
rradius 25.9711
rwrist 9.81905
rhand -14.8311 12.556
rfingers 7.12502
rthumb 11.3277 -17.118
lclavicle -3.18055e-015 -8.74653e-015
lhumerus -24.1843 2.70986 84.678
lradius 34.5054
lwrist -5.97622
lhand -15.7443 26.0891
lfingers 7.12502
lthumb 10.4469 55.8096
rfemur -27.3934 4.1502 12.273
rtibia 11.2916
rfoot -4.94587 -10.0442
rtoes 0.647578
lfemur 6.98468 -0.0871172 -29.4614
ltibia 16.9978
lfoot -16.3101 1.58322
ltoes -7.55422
381
root 11.3752 17.2642 21.4404 7.11159 39.4133 8.06405
lowerback 5.94302 -1.89428 -6.84694
upperback 0.189134 -2.94117 1.41951
thorax -2.71931 -1.36998 5.55874
lowerneck -15.3183 -3.00587 -10.1319
upperneck 24.3324 -2.50866 4.19276
head 10.5379 -1.54506 2.87654
rclavicle 6.03311e-014 7.95139e-016
rhumerus -37.0215 -17.2658 -76.7022
rradius 26.4993
rwrist 10.1743
rhand -14.584 12.5606
rfingers 7.12502
rthumb 11.5659 -17.1002
lclavicle 6.03311e-014 7.95139e-016
lhumerus -23.9789 2.88457 84.4199
lradius 34.1258
lwrist -6.08395
lhand -16.2123 26.3131
lfingers 7.12502
lthumb 9.99538 56.0558
rfemur -27.3831 3.93843 12.3272
rtibia 11.3383
rfoot -4.67194 -9.56313
rtoes 1.752
lfemur 7.36074 -0.307031 -29.5468
ltibia 17.2473
lfoot -16.4172 1.53966
ltoes -8.99216
382
root 11.4566 17.2352 21.5775 7.00158 39.2694 8.0366
lowerback 5.93645 -1.84772 -6.88623
upperback 0.258506 -2.87798 1.45334
thorax -2.64879 -1.3426 5.60991
lowerneck -15.1219 -2.90738 -10.0215
upperneck 24.1219 -2.37673 4.0303
head 10.4087 -1.49108 2.81458
rclavicle -2.15681e-014 -7.95139e-016
rhumerus -37.3232 -17.3343 -76.6153
rradius 26.651
rwrist 10.2679
rhand -14.5518 12.5462
rfingers 7.12502
rthumb 11.597 -17.1129
lclavicle -2.15681e-014 -7.95139e-016
lhumerus -23.7907 2.92347 84.3897
lradius 34.0998
lwrist -5.92631
lhand -16.4161 27.0341
lfingers 7.12502
lthumb 9.79869 56.7861
rfemur -27.3701 3.91496 12.4762
rtibia 11.9001
rfoot -4.5361 -8.57191
rtoes 4.65237
lfemur 7.87574 -0.764219 -29.5484
ltibia 17.589
lfoot -16.3598 1.86565
ltoes -9.85899
383
root 11.541 17.2122 21.7116 6.83896 39.1723 7.94248
lowerback 5.89107 -1.84361 -6.8372
upperback 0.355092 -2.86097 1.51768
thorax -2.5241 -1.34218 5.64357
lowerneck -15.0038 -2.84994 -9.95702
upperneck 23.9829 -2.27149 3.82595
head 10.3247 -1.45895 2.74252
rclavicle 2.70347e-014 -5.56597e-015
rhumerus -37.0009 -17.104 -76.6491
rradius 26.1889
rwrist 10.1039
rhand -14.9583 12.8758
rfingers 7.12502
rthumb 11.2049 -16.8049
lclavicle 2.70347e-014 -5.56597e-015
lhumerus -23.6857 2.98872 84.4931
lradius 34.2739
lwrist -5.60844
lhand -16.2809 28.1931
lfingers 7.12502
lthumb 9.92912 57.9389
rfemur -27.4057 3.685 12.7825
rtibia 12.8857
rfoot -4.14587 -7.21946
rtoes 6.17814
lfemur 8.36087 -1.24512 -29.5118
ltibia 18.017
lfoot -16.1899 2.02434
ltoes -10.7888
384
root 11.6281 17.2036 21.8455 6.65175 39.1721 7.81172
lowerback 5.87322 -1.87317 -6.68336
upperback 0.446459 -2.88517 1.54534
thorax -2.42135 -1.36239 5.58342
lowerneck -15.0182 -2.88269 -9.95528
upperneck 23.9337 -2.29876 3.7561
head 10.3115 -1.47869 2.71246
rclavicle 3.00165e-014 0
rhumerus -36.8077 -17.3028 -76.5435
rradius 25.875
rwrist 10.5168
rhand -15.0131 12.8823
rfingers 7.12502
rthumb 11.1521 -16.8013
lclavicle 3.00165e-014 0
lhumerus -23.5706 3.32081 84.45
lradius 34.3028
lwrist -5.69265
lhand -15.9176 28.439
lfingers 7.12502
lthumb 10.2796 58.1678
rfemur -27.6437 3.32256 13.2199
rtibia 14.5673
rfoot -3.97723 -6.22222
rtoes 6.89106
lfemur 8.90755 -1.46864 -29.3795
ltibia 18.2595
lfoot -16.0905 1.72714
ltoes -11.8435
385
root 11.7148 17.2026 21.9895 6.36963 39.2476 7.51292
lowerback 5.84948 -1.93878 -6.45952
upperback 0.488904 -2.95263 1.63281
thorax -2.3606 -1.40158 5.55031
lowerneck -15.0951 -2.88454 -9.99278
upperneck 24.0175 -2.27135 3.71184
head 10.3554 -1.47579 2.7074
rclavicle 3.30976e-014 1.03368e-014
rhumerus -37.0749 -17.5208 -76.3923
rradius 25.8594
rwrist 11.0365
rhand -14.8797 12.8506
rfingers 7.12502
rthumb 11.2808 -16.8261
lclavicle 3.30976e-014 1.03368e-014
lhumerus -23.6226 3.72115 84.3245
lradius 34.313
lwrist -5.7788
lhand -15.7539 27.8759
lfingers 7.12502
lthumb 10.4376 57.5969
rfemur -27.6847 2.91368 13.9191
rtibia 16.1311
rfoot -3.57183 -5.92577
rtoes 9.97587
lfemur 9.58539 -1.93932 -29.067
ltibia 18.4432
lfoot -15.9783 1.26472
ltoes -10.9236
386
root 11.8018 17.204 22.1389 6.31472 39.3119 7.78492
lowerback 5.96918 -1.99637 -6.69632
upperback 0.518485 -3.05264 1.60467
thorax -2.37186 -1.44952 5.66618
lowerneck -15.1761 -2.7697 -10.0907
upperneck 24.2704 -2.08085 3.74391
head 10.4503 -1.3974 2.7651
rclavicle 8.18993e-014 3.18055e-015
rhumerus -37.3451 -17.5181 -76.2676
rradius 25.7685
rwrist 11.3869
rhand -14.8984 13.0095
rfingers 7.12502
rthumb 11.2627 -16.6681
lclavicle 8.18993e-014 3.18055e-015
lhumerus -23.959 3.98688 84.2036
lradius 34.5082
lwrist -5.86397
lhand -15.6315 27.9504
lfingers 7.12502
lthumb 10.5556 57.6653
rfemur -27.4519 1.94269 14.4436
rtibia 17.6047
rfoot -2.43777 -5.50722
rtoes 9.44615
lfemur 10.3912 -2.53292 -29.3344
ltibia 18.5805
lfoot -15.4968 1.36036
ltoes -11.0968
387
root 11.881 17.2143 22.2958 6.12636 39.3133 7.60594
lowerback 5.96969 -2.0084 -6.65964
upperback 0.501982 -3.06492 1.67458
thorax -2.38557 -1.45488 5.72021
lowerneck -15.193 -2.66585 -9.9657
upperneck 24.5106 -1.91666 3.56979
head 10.5259 -1.33501 2.70756
rclavicle -2.3059e-014 -1.51076e-014
rhumerus -37.5045 -17.6187 -76.1177
rradius 25.6161
rwrist 11.725
rhand -14.9552 13.0291
rfingers 7.12502
rthumb 11.2079 -16.6515
lclavicle -2.3059e-014 -1.51076e-014
lhumerus -24.145 4.46331 84.0865
lradius 34.3241
lwrist -5.90414
lhand -15.8241 27.4199
lfingers 7.12502
lthumb 10.3699 57.1442
rfemur -27.7574 3.10917 14.2648
rtibia 19.0151
rfoot -1.78482 -6.24514
rtoes 11.491
lfemur 10.855 -2.96834 -29.2104
ltibia 18.7067
lfoot -14.6502 1.63601
ltoes -12.7812
388
root 11.9663 17.2348 22.4503 5.7972 39.3741 7.23504
lowerback 5.99895 -2.03775 -6.37888
upperback 0.478867 -3.08574 1.74898
thorax -2.43354 -1.46532 5.64291
lowerneck -15.143 -2.61334 -9.77951
upperneck 24.6901 -1.83583 3.34803
head 10.5723 -1.31008 2.61017
rclavicle 1.20762e-013 2.38542e-015
rhumerus -37.6639 -17.8933 -75.9265
rradius 25.4894
rwrist 11.947
rhand -14.7623 12.8693
rfingers 7.12502
rthumb 11.394 -16.8012
lclavicle 1.20762e-013 2.38542e-015
lhumerus -24.2904 4.99041 83.9397
lradius 34.0677
lwrist -5.99517
lhand -16.1849 27.3833
lfingers 7.12502
lthumb 10.0218 57.1247
rfemur -27.9036 3.529 14.5762
rtibia 20.2599
rfoot -1.02647 -6.507
rtoes 9.39448
lfemur 11.2611 -3.36063 -28.9238
ltibia 18.9905
lfoot -13.6323 1.77822
ltoes -14.8021
389
root 12.0616 17.2576 22.5956 5.76055 39.6112 7.42897
lowerback 6.12518 -2.07969 -6.42291
upperback 0.417881 -3.15479 1.73276
thorax -2.55648 -1.49286 5.66388
lowerneck -14.8086 -2.69223 -9.83326
upperneck 24.7284 -1.93988 3.24873
head 10.5307 -1.37598 2.57082
rclavicle -4.57205e-015 1.82882e-014
rhumerus -37.8546 -18.4715 -75.4394
rradius 25.1357
rwrist 12.5101
rhand -14.7727 12.9501
rfingers 7.12502
rthumb 11.3839 -16.7209
lclavicle -4.57205e-015 1.82882e-014
lhumerus -24.5166 5.54771 83.8944
lradius 33.8119
lwrist -6.33827
lhand -16.4372 27.1687
lfingers 7.12502
lthumb 9.77837 56.9217
rfemur -27.5471 2.95744 14.6503
rtibia 20.8242
rfoot -0.23873 -6.39807
rtoes 10.0577
lfemur 11.5372 -4.21037 -29.2151
ltibia 19.9247
lfoot -12.8404 1.97566
ltoes -15.3567
390
root 12.1485 17.2702 22.7438 5.62323 39.7345 7.41715
lowerback 6.19553 -2.08417 -6.46347
upperback 0.364343 -3.16788 1.79128
thorax -2.64431 -1.49383 5.75478
lowerneck -14.4002 -2.73959 -9.81789
upperneck 24.6525 -2.02919 3.15616
head 10.4302 -1.426 2.52341
rclavicle 4.07509e-015 -1.66979e-014
rhumerus -37.9504 -18.8345 -75.0268
rradius 24.7196
rwrist 12.9469
rhand -15.1617 13.2169
rfingers 7.12502
rthumb 11.0088 -16.4744
lclavicle 4.07509e-015 -1.66979e-014
lhumerus -24.6531 6.6762 83.7649
lradius 33.2166
lwrist -7.27821
lhand -16.5983 25.1411
lfingers 7.12502
lthumb 9.62292 54.9013
rfemur -27.1835 2.8577 14.7794
rtibia 21.2701
rfoot 0.259872 -5.93329
rtoes 9.20132
lfemur 11.5597 -4.99373 -29.3301
ltibia 21.2822
lfoot -12.1259 2.12083
ltoes -16.1625
391
root 12.228 17.2834 22.8973 5.13728 39.5869 6.61864
lowerback 6.08944 -2.07567 -6.01122
upperback 0.341335 -3.11189 2.03393
thorax -2.62708 -1.47033 5.74498
lowerneck -14.4959 -2.70002 -9.91143
upperneck 24.8107 -1.94268 3.17813
head 10.5023 -1.3951 2.56054
rclavicle 8.49804e-014 1.11319e-014
rhumerus -37.8436 -19.1804 -74.6704
rradius 24.3528
rwrist 13.5651
rhand -15.1428 13.1258
rfingers 7.12502
rthumb 11.0271 -16.5646
lclavicle 8.49804e-014 1.11319e-014
lhumerus -24.6973 7.85919 83.613
lradius 32.576
lwrist -7.96094
lhand -16.6543 24.0074
lfingers 7.12502
lthumb 9.56888 53.7701
rfemur -27.0294 3.24085 15.5262
rtibia 21.7423
rfoot 0.844414 -5.2604
rtoes 8.57221
lfemur 11.1505 -5.27802 -28.7073
ltibia 22.8514
lfoot -11.2228 2.13112
ltoes -17.3267
392
root 12.3147 17.2922 23.0552 4.59483 39.4542 6.0159
lowerback 6.0738 -2.07672 -5.65567
upperback 0.394805 -3.08164 2.19438
thorax -2.57654 -1.46175 5.70729
lowerneck -14.6934 -2.63295 -9.88533
upperneck 25.0513 -1.80027 3.0672
head 10.6181 -1.34445 2.53811
rclavicle 7.94145e-014 -1.03368e-014
rhumerus -37.7882 -19.6408 -74.3145
rradius 24.1072
rwrist 14.261
rhand -14.9523 12.7222
rfingers 7.12502
rthumb 11.2107 -16.9582
lclavicle 7.94145e-014 -1.03368e-014
lhumerus -24.9262 8.48145 83.4758
lradius 32.2259
lwrist -8.1404
lhand -16.5261 24.3753
lfingers 7.12502
lthumb 9.69257 54.1323
rfemur -26.4272 3.3006 16.2219
rtibia 21.9171
rfoot 1.41813 -4.11971
rtoes 7.65293
lfemur 10.7742 -5.62282 -28.2866
ltibia 24.8659
lfoot -10.4521 2.11156
ltoes -16.4586
